<svg fill="#ff0000" version="1.1" id="Capa_1" xmlns="http://www.w3.org/2000/svg" xmlns:xlink="http://www.w3.org/1999/xlink" viewBox="0 0 191.125 191.125" xml:space="preserve" stroke="#ff0000"><g id="SVGRepo_bgCarrier" stroke-width="0"></g><g id="SVGRepo_tracerCarrier" stroke-linecap="round" stroke-linejoin="round"></g><g id="SVGRepo_iconCarrier"> <g> <g> <path d="M177.02,85.233c-4.787-46.353-56.53-45.631-81.462-23.259c-24.932-22.372-76.651-23.094-81.45,23.259 c-6.191,59.663,81.45,105.892,81.45,105.892S183.196,144.896,177.02,85.233z"></path> <path d="M95.558,42.368c13.642,0,81.711-1.022,81.711-21.184C177.269,1.022,109.199,0,95.558,0 c-13.642,0-81.71,1.022-81.71,21.185C13.847,41.346,81.916,42.368,95.558,42.368z M95.558,12.105 c37.977,0,61.229,5.388,68.104,9.079c-6.886,3.691-30.127,9.079-68.104,9.079c-37.974,0-61.224-5.388-68.104-9.079 C34.328,17.493,57.578,12.105,95.558,12.105z"></path> </g> </g> </g></svg>