<svg height="200px" width="200px" version="1.1" id="_x32_" xmlns="http://www.w3.org/2000/svg" xmlns:xlink="http://www.w3.org/1999/xlink" viewBox="0 0 512 512" xml:space="preserve" fill="#000000"><g id="SVGRepo_bgCarrier" stroke-width="0"></g><g id="SVGRepo_tracerCarrier" stroke-linecap="round" stroke-linejoin="round"></g><g id="SVGRepo_iconCarrier"> <style type="text/css"> .st0{fill:#000000;} </style> <g> <path class="st0" d="M170.119,297.093c-7.578,0-12.455,3.795-14.495,10.161c-1.088,3.251-1.488,7.729-1.488,19.792 c0,12.062,0.399,16.54,1.488,19.785c2.04,6.373,6.917,10.168,14.495,10.168c7.592,0,12.484-3.795,14.509-10.168 c1.088-3.244,1.502-7.722,1.502-19.785c0-12.063-0.414-16.541-1.502-19.792C182.602,300.888,177.711,297.093,170.119,297.093z"></path> <path class="st0" d="M252.636,156.569c-5.856,0-9.59,2.438-11.215,7.489c-0.978,2.92-1.309,6.186-1.309,30.422 c0,24.222,0.331,27.487,1.309,30.408c1.625,5.05,5.359,7.488,11.215,7.488c5.704,0,9.603-2.439,11.243-7.488 c0.965-2.921,1.282-6.186,1.282-30.408c0-24.236-0.316-27.502-1.282-30.422C262.239,159.008,258.34,156.569,252.636,156.569z"></path> <path class="st0" d="M310.67,207.307c0.537,1.571,1.901,2.411,3.678,2.411c1.805,0,3.17-0.84,3.693-2.411 c0.316-0.847,0.413,1.24,0.413-5.167c0-6.421-0.097-4.326-0.413-5.16c-0.524-1.585-1.888-2.432-3.693-2.432 c-1.777,0-3.141,0.847-3.678,2.432c-0.304,0.833-0.414-1.261-0.414,5.16C310.256,208.547,310.366,206.46,310.67,207.307z"></path> <path class="st0" d="M368.166,223.07c-0.524-1.599-1.888-2.432-3.679-2.432c-1.791,0-3.156,0.833-3.693,2.432 c-0.317,0.834-0.414-1.275-0.414,5.153c0,6.413,0.097,4.319,0.414,5.166c0.537,1.57,1.902,2.411,3.693,2.411 c1.791,0,3.155-0.841,3.679-2.411c0.317-0.847,0.427,1.247,0.427-5.166C368.593,221.795,368.483,223.903,368.166,223.07z"></path> <path class="st0" d="M479.548,265.761c-2.397-6.283-2.397-13.234,0-19.524l19.469-51.11c4.594-12.056,0.165-25.669-10.623-32.716 l-45.805-29.906c-5.628-3.679-9.714-9.307-11.47-15.797l-14.295-52.804c-3.368-12.442-14.956-20.86-27.825-20.219l-54.631,2.728 c-6.724,0.331-13.33-1.812-18.573-6.035L273.2,6.071c-10.037-8.095-24.359-8.095-34.396,0l-42.595,34.307 c-5.243,4.224-11.849,6.366-18.573,6.035l-54.631-2.728c-12.868-0.64-24.456,7.778-27.824,20.219l-14.295,52.804 c-1.756,6.49-5.842,12.118-11.47,15.797L23.61,162.412c-10.788,7.047-15.218,20.66-10.63,32.716l19.476,51.11 c2.397,6.29,2.397,13.24,0,19.524l-19.476,51.116c-4.588,12.042-0.158,25.669,10.63,32.716l45.805,29.906 c5.629,3.672,9.714,9.294,11.47,15.79l14.295,52.798c3.368,12.455,14.956,20.867,27.824,20.226l54.631-2.728 c6.724-0.337,13.33,1.812,18.573,6.035l42.595,34.315c10.037,8.087,24.36,8.087,34.396,0l42.595-34.315 c5.243-4.223,11.849-6.372,18.573-6.035l54.631,2.728c12.869,0.641,24.456-7.77,27.825-20.226l14.295-52.798 c1.757-6.496,5.842-12.118,11.47-15.79l45.805-29.906c10.788-7.047,15.218-20.674,10.623-32.716L479.548,265.761z M349.592,180.316 c0.675-1.474,2.15-2.425,3.776-2.425h2.576c1.405,0,2.728,0.73,3.5,1.916c0.772,1.198,0.868,2.7,0.276,3.981l-30.464,66.266 c-0.675,1.474-2.149,2.418-3.775,2.418h-2.563c-1.419,0-2.742-0.724-3.514-1.915c-0.758-1.192-0.854-2.7-0.289-3.975 L349.592,180.316z M300.791,194.865c1.791-5.249,6.834-8.625,13.557-8.625c6.752,0,11.794,3.376,13.586,8.625 c0.73,2.116,0.951,0.648,0.951,7.275c0,6.628-0.221,5.167-0.951,7.261c-1.791,5.263-6.834,8.639-13.586,8.639 c-6.724,0-11.766-3.376-13.557-8.639c-0.744-2.094-0.951-0.634-0.951-7.261C299.84,195.513,300.047,196.981,300.791,194.865z M134.323,225.377l17.567-3.41c0.965-0.172,1.626,0.318,1.957,1.302c1.943,5.201,5.842,9.107,12.841,9.107 c5.525,0,9.934-2.611,11.56-7.812c0.964-2.598,1.295-5.69,1.295-10.733c0-5.366-0.331-8.288-1.295-10.898 c-1.805-5.532-6.187-7.647-11.56-7.647c-6.008,0-9.59,3.094-11.215,6.345c-0.482,1.144-0.993,1.626-2.122,1.626h-17.402 c-0.978,0-1.626-0.654-1.626-1.626v-60.837c0-0.971,0.648-1.619,1.626-1.619h61.809c0.978,0,1.626,0.648,1.626,1.619V156.9 c0,0.971-0.648,1.626-1.626,1.626h-42.451c-0.648,0-0.978,0.331-0.978,0.971v21.811h0.482c2.769-2.446,8.308-5.215,16.602-5.215 c14.15,0,24.388,6.345,28.466,18.704c1.46,4.554,2.273,9.603,2.273,18.876c0,6.986-0.978,12.682-2.452,17.243 c-4.382,13.496-16.906,20.647-32.682,20.647c-18.862,0-32.048-9.914-34.004-24.394 C132.863,226.355,133.345,225.543,134.323,225.377z M203.738,352.26c-4.74,14.908-17.471,22.362-33.619,22.362 c-16.12,0-28.865-7.454-33.604-22.362c-2.04-6.366-2.577-11.518-2.577-25.214c0-13.689,0.537-18.842,2.577-25.221 c4.739-14.901,17.484-22.362,33.604-22.362c16.148,0,28.879,7.461,33.619,22.362c2.039,6.379,2.576,11.532,2.576,25.221 C206.314,340.742,205.777,345.894,203.738,352.26z M283.168,296.824c0,0.812-0.551,1.357-1.35,1.357h-39.722 c-0.538,0-0.814,0.268-0.814,0.813v19.379c0,0.551,0.276,0.813,0.814,0.813h33.081c0.799,0,1.35,0.544,1.35,1.35v14.37 c0,0.82-0.551,1.364-1.35,1.364h-33.081c-0.538,0-0.814,0.262-0.814,0.806v34.7c0,0.813-0.551,1.357-1.35,1.357H222.71 c-0.813,0-1.35-0.544-1.35-1.357v-89.462c0-0.813,0.538-1.35,1.35-1.35h59.108c0.799,0,1.35,0.538,1.35,1.35V296.824z M285.98,228.953c-4.547,14.157-15.942,22.61-33.344,22.61c-17.402,0-28.782-8.453-33.343-22.61 c-1.612-4.877-2.439-9.927-2.439-34.473c0-24.567,0.827-29.609,2.439-34.494c4.561-14.15,15.942-22.603,33.343-22.603 c17.402,0,28.796,8.453,33.344,22.603c1.639,4.885,2.439,9.927,2.439,34.494C288.418,219.026,287.619,224.076,285.98,228.953z M361.469,296.824c0,0.812-0.551,1.357-1.35,1.357h-39.722c-0.538,0-0.813,0.268-0.813,0.813v19.379 c0,0.551,0.276,0.813,0.813,0.813h33.068c0.812,0,1.364,0.544,1.364,1.35v14.37c0,0.82-0.551,1.364-1.364,1.364h-33.068 c-0.538,0-0.813,0.262-0.813,0.806v34.7c0,0.813-0.537,1.357-1.35,1.357h-17.222c-0.813,0-1.35-0.544-1.35-1.357v-89.462 c0-0.813,0.538-1.35,1.35-1.35h59.108c0.799,0,1.35,0.538,1.35,1.35V296.824z M378.058,235.484 c-1.778,5.264-6.848,8.639-13.571,8.639c-6.738,0-11.781-3.375-13.572-8.639c-0.73-2.094-0.95-0.634-0.95-7.261 c0-6.635,0.22-5.153,0.95-7.275c1.791-5.249,6.834-8.612,13.572-8.612c6.724,0,11.794,3.362,13.571,8.612 c0.73,2.122,0.951,0.64,0.951,7.275C379.009,234.85,378.788,233.389,378.058,235.484z"></path> </g> </g></svg>